<?xml version="1.0" encoding="UTF-8"?>
<svg version="1.1" xmlns="http://www.w3.org/2000/svg" width="2400" height="1352">
<path d="M0 0 C0.76499817 -0.00067474 1.52999634 -0.00134949 2.31817627 -0.00204468 C79.50297763 0.10492594 148.35229468 21.72745907 203.16601562 76.41040039 C209.62802392 82.96489926 215.28995139 89.85599677 220.75 97.25 C221.50152344 98.20648438 222.25304687 99.16296875 223.02734375 100.1484375 C257.4592584 144.32295014 266.46327589 192.38689865 260.75 247.25 C258.51969529 263.99392935 251.8140557 278.88878251 244 293.6875 C243.28530643 295.05492139 242.57079022 296.42243549 241.85644531 297.79003906 C236.78425894 307.46059811 231.51811706 316.97630922 225.75 326.25 C225.07106689 327.35263184 225.07106689 327.35263184 224.37841797 328.47753906 C213.35946709 346.34469903 201.56459263 363.62258399 188.75 380.25 C188.29947266 380.83555664 187.84894531 381.42111328 187.38476562 382.02441406 C176.96606926 395.52309001 166.27952855 408.82089953 154.56640625 421.22265625 C152.49857927 423.41666101 150.51616254 425.66898976 148.55029297 427.95458984 C144.89899522 432.13534976 141.0587721 436.08608225 137.12890625 440.00390625 C136.07351906 441.06072853 136.07351906 441.06072853 134.99681091 442.13890076 C133.51985352 443.61653367 132.04165258 445.09292457 130.56225586 446.56811523 C128.31834915 448.80666481 126.07983296 451.05050473 123.84179688 453.29492188 C122.39615382 454.73990404 120.95020055 456.18457592 119.50390625 457.62890625 C118.8453212 458.28951553 118.18673615 458.95012482 117.50819397 459.63075256 C113.62377458 463.49596479 109.63064592 467.18085643 105.47955322 470.75856018 C103.2602696 472.67230757 101.10027953 474.64781801 98.9375 476.625 C73.61897601 499.43864719 45.3280968 519.2946131 17.75 539.25 C19.72767719 540.25294248 21.70727743 541.25209256 23.6875 542.25 C24.31358154 542.56686768 24.93966309 542.88373535 25.5847168 543.21020508 C28.97971454 544.91459162 32.38648057 546.55171892 35.8671875 548.07421875 C52.39385601 555.35748538 65.89307426 565.67016318 78.75 578.25 C79.3996875 578.84941406 80.049375 579.44882812 80.71875 580.06640625 C103.27484217 601.29254015 115.00980099 630.34644083 126.75 658.25 C128.95515382 655.52893762 131.11705205 652.82619574 133.046875 649.90234375 C133.64218018 649.0043103 133.64218018 649.0043103 134.24951172 648.08813477 C134.66217285 647.46092529 135.07483398 646.83371582 135.5 646.1875 C135.93973145 645.52484131 136.37946289 644.86218262 136.83251953 644.17944336 C138.82042682 641.18245156 140.79649076 638.17854533 142.7578125 635.1640625 C157.4812765 612.67843756 175.11552424 592.69638682 194.08398438 573.73071289 C195.75421095 572.0582835 197.41622379 570.37796331 199.078125 568.69726562 C205.66038733 562.08106942 212.43517722 556.05705512 219.75 550.25 C220.85198582 549.31540634 221.94832374 548.37404786 223.03515625 547.421875 C245.41058252 527.91025153 270.74753007 512.11165929 298 500.4375 C299.08933838 499.96884521 300.17867676 499.50019043 301.30102539 499.01733398 C321.0379274 490.7325419 341.06058686 489.935585 362.234375 489.7734375 C363.15484871 489.76528645 364.07532242 489.75713539 365.02368927 489.74873734 C369.86994944 489.70758032 374.71610495 489.67870882 379.5625 489.65966797 C384.53917324 489.6373032 389.51411571 489.56808394 394.49016953 489.48932457 C398.35417945 489.4370223 402.21776717 489.42029038 406.08209991 489.41310501 C407.91772811 489.40341058 409.7533398 489.38028841 411.58861542 489.34302902 C425.81230198 489.07150415 425.81230198 489.07150415 430.60519409 491.98651123 C432.62110063 493.9729178 434.18599454 495.90032397 435.75 498.25 C436.58789062 499.2090625 437.42578125 500.168125 438.2890625 501.15625 C440.45265636 503.84656147 442.61125986 506.53987103 444.75 509.25 C445.33136719 509.97574219 445.91273438 510.70148438 446.51171875 511.44921875 C453.57183163 520.50110151 457.99859769 530.5248873 456.75 542.25 C454.27854606 558.02482708 449.12714669 571.79007281 436.44140625 582.03515625 C429.68570686 586.88740224 422.85737804 587.92034483 414.75 587.25 C402.38538855 585.17335493 391.75251869 578.82221205 381.6875 571.6875 C369.10577547 562.78790003 356.53902811 556.93178547 340.78125 558.71875 C314.00879671 563.41082944 292.53489665 585.06614352 274.11547852 603.67871094 C272.29440913 605.51827459 270.46522496 607.34947141 268.63476562 609.1796875 C262.79590486 615.0362756 257.10113125 620.93900295 251.75 627.25 C250.29554483 628.85768373 248.83779105 630.46239715 247.375 632.0625 C242.64423907 637.31180977 238.18002948 642.74623945 233.75 648.25 C232.82461592 649.38313697 231.89881607 650.51593449 230.97265625 651.6484375 C223.17005806 661.2365629 215.84462502 671.12802684 208.75 681.25 C208.30946289 681.87841797 207.86892578 682.50683594 207.41503906 683.15429688 C183.05475238 718.18290583 154.52477026 766.01400374 162.43359375 810.7265625 C165.16427025 823.53083535 171.03123502 835.49576361 181.5703125 843.66015625 C186.06377786 846.47109086 190.56977461 847.86821204 195.83984375 846.84375 C208.03083847 843.24429989 218.8117605 834.49729249 227.50390625 825.41796875 C228.75 824.25 228.75 824.25 230.75 824.25 C231.01256592 823.65791748 231.27513184 823.06583496 231.5456543 822.45581055 C232.80701815 820.14556883 234.10406786 818.74638906 236.01953125 816.95703125 C239.54838108 813.52486224 242.52451237 809.89775812 245.4375 805.9375 C245.95094971 805.24366211 246.46439941 804.54982422 246.9934082 803.83496094 C264.87965136 779.44090849 279.88097621 753.05104272 294.76171875 726.75878906 C298.09527131 720.8713448 301.45458788 714.99857298 304.8125 709.125 C305.14486664 708.54361267 305.47723328 707.96222534 305.81967163 707.36322021 C307.48116473 704.45725916 309.14338586 701.55171716 310.80615234 698.64648438 C312.07798413 696.42421312 313.34916906 694.2015715 314.61962891 691.97851562 C352.29216479 626.10413718 352.29216479 626.10413718 367.75 608.25 C368.40226563 607.45464844 369.05453125 606.65929687 369.7265625 605.83984375 C375.68443571 598.76630702 382.17751613 593.18065815 391.75 592.25 C405.46610443 592.09413518 419.85666982 596.88013674 429.98828125 606.33984375 C433.60255319 610.35819578 436.5528234 613.75383665 436.98950195 619.28198242 C436.6918885 624.21277907 435.36540998 628.30099615 433.73828125 632.9375 C433.42296951 633.85740723 433.10765778 634.77731445 432.78279114 635.72509766 C429.44541291 645.34356915 425.72830267 654.80322618 421.9375 664.25 C421.19965688 666.10265024 420.46236639 667.95552065 419.72558594 669.80859375 C415.87346161 679.48614614 411.98713776 689.14991585 408.09765625 698.8125 C379.04250604 759.26780226 379.04250604 759.26780226 369.75 823.25 C371.1495106 825.12785418 371.1495106 825.12785418 372.75 826.25 C392.63069729 822.71565382 408.07320016 798.46596503 418.75 783.25 C422.59663515 777.69374923 426.20124366 771.99988369 429.75 766.25 C430.37632324 765.239375 431.00264648 764.22875 431.64794922 763.1875 C446.31826369 739.45437609 459.82804222 715.14430513 472.98339844 690.54052734 C474.71887708 687.30797053 476.47036384 684.08462041 478.2265625 680.86328125 C512.81933251 619.22909321 512.81933251 619.22909321 531.06347656 551.7109375 C534.55374777 523.44721227 542.70931148 493.34669445 565.375 474.1875 C581.52274471 461.64438005 598.17188824 460.27649626 617.78515625 462.51953125 C625.33608681 463.52565975 633.4967732 465.37874652 638.75 471.25 C644.80804181 479.36676353 644.97123849 488.57092801 643.75 498.25 C641.83216157 508.83170062 638.28297285 519.10589156 634.765625 529.24609375 C631.86978872 537.81108645 630.43707166 550.97693826 634.53515625 559.4375 C640.24894993 567.9622597 647.62634386 573.56978715 656.09033203 579.14111328 C671.04730177 589.13442845 683.72655444 600.09428289 687.75 618.25 C688.16534756 621.94948326 688.22798979 625.59218463 688.1875 629.3125 C688.17847656 630.32127197 688.16945313 631.33004395 688.16015625 632.36938477 C687.95181645 641.48352752 686.4329361 649.5734295 683.75 658.25 C683.51345703 659.05759766 683.27691406 659.86519531 683.03320312 660.69726562 C677.72605541 678.67134604 670.2219575 695.75854731 662.86312866 712.95909119 C635.69032877 766.27323266 635.69032877 766.27323266 632.57421875 822.13671875 C635.3006367 827.03702476 639.49569088 830.31887232 644.625 832.4375 C659.26606634 831.55903602 676.87912217 816.88309882 686.21484375 806.51171875 C701.91290038 786.79119836 706.03125084 759.01976205 711.20385742 734.99679565 C729.54018906 650.14206132 758.38985157 569.34380055 821.6640625 439.86328125 C823.7499219 436.08373577 825.8053129 432.28997174 827.8359375 428.48046875 C835.42074964 414.27088756 843.43649092 400.35104434 851.75439453 386.56005859 C853.03060606 384.44323992 854.30281256 382.32399816 855.56982422 380.20166016 C874.0660295 349.23518571 894.1303035 318.68219962 915.6875 289.75 C916.56825195 288.56192749 916.56825195 288.56192749 917.46679688 287.34985352 C919.2248096 284.98094559 920.9870589 282.61524141 922.75 280.25 C923.2670752 279.55374512 923.78415039 278.85749023 924.31689453 278.14013672 C938.89781002 258.50741592 954.06435533 239.39399559 969.9230957 220.77783203 C972.71280667 217.49854455 975.43141544 214.17092576 978.125 210.8125 C982.20091102 205.79824976 986.53852794 201.06957713 990.97021484 196.37133789 C993.7826489 193.38777689 996.53869437 190.37062464 999.23046875 187.27734375 C1009.39378625 175.59930104 1020.29560986 164.5892092 1031.20791626 153.61584473 C1032.4287743 152.38757367 1033.64803675 151.15771426 1034.86557007 149.92614746 C1042.17280145 142.54252246 1049.58953981 135.69268748 1057.75 129.25 C1059.3570625 127.89927124 1060.9616269 126.54555867 1062.5625 125.1875 C1068.53091168 120.42800105 1075.01312843 116.79357815 1081.75 113.25 C1082.43449219 112.86457031 1083.11898438 112.47914063 1083.82421875 112.08203125 C1092.6846365 107.84097736 1105.1373776 109.31332645 1114.125 112.3125 C1124.94467839 116.73197962 1133.37158098 123.21327833 1141.75 131.25 C1142.48863281 131.92546875 1143.22726562 132.6009375 1143.98828125 133.296875 C1158.93290324 147.41861372 1172.71468949 167.79589263 1173.80078125 188.76953125 C1173.18813334 230.75947618 1142.91284929 278.05345505 1124.625 314.75 C1124.1259314 315.75358551 1123.62686279 316.75717102 1123.1126709 317.79116821 C1116.36345325 331.34439964 1109.32398446 344.70417328 1102.00921631 357.96032715 C1100.39390785 360.89749362 1098.8067931 363.84850357 1097.2265625 366.8046875 C1090.84218495 378.72752879 1084.20610232 390.47109331 1077.34375 402.125 C1074.26878337 407.34841493 1071.25019992 412.60235599 1068.24169922 417.86425781 C1060.04450529 432.18308101 1051.47489903 446.24778897 1042.75 460.25 C1041.43093565 462.37366442 1040.11192479 464.49736206 1038.79296875 466.62109375 C1016.21238005 502.92340458 992.47880372 538.51430118 967.32226562 573.08496094 C965.18369487 576.02981271 963.05860592 578.98429133 960.93261719 581.93823242 C950.78842893 596.0217777 940.56303849 610.02608092 929.85961914 623.69140625 C926.09595521 628.50079606 922.39788836 633.35231019 918.75 638.25 C912.74472115 646.30493066 906.58688741 654.23675897 900.39453125 662.1484375 C898.88582674 664.07642568 897.38004649 666.00665605 895.875 667.9375 C890.52443118 674.7886151 885.08018831 681.55737404 879.58349609 688.29174805 C876.11073479 692.55330613 872.69176015 696.85155148 869.3125 701.1875 C863.46120945 708.68669181 857.39871133 716.00805299 851.33349609 723.33447266 C849.19268 725.92418019 847.06397469 728.52350129 844.9375 731.125 C843.88755859 732.40890625 843.88755859 732.40890625 842.81640625 733.71875 C841.40589226 735.44656298 839.99711257 737.17579286 838.58984375 738.90625 C834.06407775 744.46168763 829.47448466 749.95612885 824.83422852 755.41577148 C821.95479732 758.8091538 819.11810273 762.23249917 816.3125 765.6875 C812.35491812 770.55129025 808.28457554 775.30881231 804.19165039 780.05834961 C800.42685855 784.43613983 796.76132731 788.88584443 793.125 793.37109375 C789.69918724 797.52376482 786.17917972 801.59429579 782.64648438 805.65625 C778.47178168 810.3688738 778.47178168 810.3688738 777.80737305 816.29638672 C777.84627151 817.12848663 777.88516998 817.96058655 777.92524719 818.81790161 C777.97440781 819.72104095 778.02356842 820.6241803 778.07421875 821.5546875 C778.12261398 822.4927121 778.17100922 823.43073669 778.22087097 824.39718628 C778.71859768 833.52806444 779.45091896 842.63190405 780.31469727 851.73486328 C780.56305639 854.3809279 780.79438777 857.02815196 781.02539062 859.67578125 C782.75744763 878.62916785 784.99672478 899.69152255 797.1875 915.0625 C799.34846565 916.70483389 801.06192627 916.96142738 803.75 917.25 C811.85961956 913.95011642 818.54002024 906.26232682 824.75 900.25 C825.54615723 899.48107422 826.34231445 898.71214844 827.16259766 897.91992188 C837.80772201 887.58806325 848.10286712 877.32901058 856.75 865.25 C857.46285156 864.29351563 858.17570312 863.33703125 858.91015625 862.3515625 C871.72937099 844.62335628 881.77625373 824.86885504 891.47509766 805.32128906 C893.13419006 801.98150021 894.8104157 798.65070263 896.48828125 795.3203125 C911.7118676 764.91068393 919.80154514 738.98217803 920.2331543 704.89428711 C920.42421591 696.17903307 921.45116411 688.79356885 927.5859375 682.16015625 C944.35537862 667.35824883 967.90265421 656.55273713 990.375 655.9375 C991.72464844 655.88142578 991.72464844 655.88142578 993.1015625 655.82421875 C996.69262782 656.40154341 998.21571138 657.66451363 1000.75 660.25 C1007.68710287 674.02785709 1009.39826651 691.45270695 1011.71875 706.5234375 C1012.5214594 711.38939112 1013.71352943 715.61629836 1015.5625 720.1875 C1016.04332031 721.41339844 1016.52414062 722.63929688 1017.01953125 723.90234375 C1019.12644164 727.97824038 1021.58564733 731.16782367 1025.75 733.25 C1028.7647397 733.48952065 1031.78929673 733.43520448 1034.8125 733.4375 C1035.63427734 733.44974609 1036.45605469 733.46199219 1037.30273438 733.47460938 C1045.54794422 733.49407092 1053.25956638 732.73081061 1059.75 727.25 C1064.18940791 721.9687557 1067.74047464 716.17928881 1071.125 710.1875 C1071.62974854 709.30046387 1072.13449707 708.41342773 1072.65454102 707.49951172 C1077.57833977 698.74230564 1082.14247257 689.80703986 1086.71585083 680.86413574 C1098.85330152 657.1488759 1111.74861952 633.60864267 1127.75 612.25 C1128.53890625 611.19683594 1129.3278125 610.14367187 1130.140625 609.05859375 C1140.06182045 595.95634212 1150.34953473 583.10033565 1161.75 571.25 C1162.57201904 570.39510986 1162.57201904 570.39510986 1163.41064453 569.52294922 C1170.79764577 561.88854632 1178.340977 554.76669715 1186.75 548.25 C1187.81209868 547.39825743 1188.87325894 546.54534366 1189.93359375 545.69140625 C1207.09922455 531.99593696 1207.09922455 531.99593696 1213.33203125 532.4296875 C1231.03431431 538.43530857 1247.2797387 569.68565257 1255.75 585.25 C1257.68333815 589.54359639 1258.13982288 591.64621171 1256.75 596.25 C1250.23131114 609.72539239 1239.31457804 621.86831733 1229.75 633.25 C1228.91082031 634.25160156 1228.07164063 635.25320313 1227.20703125 636.28515625 C1222.27404167 642.15270381 1217.27669094 647.96263282 1212.25 653.75 C1210.60358468 655.64825982 1208.95770833 657.54698305 1207.3125 659.44628906 C1206.31318288 660.59987576 1205.31324292 661.7529234 1204.3125 662.90527344 C1196.94800691 671.40477719 1190.04376794 680.20852763 1183.29492188 689.20361328 C1181.90567821 691.04379034 1180.49648907 692.86584822 1179.078125 694.68359375 C1161.96353125 716.90595591 1149.16979595 742.21757204 1136.75 767.25 C1136.19521973 768.36375 1135.64043945 769.4775 1135.06884766 770.625 C1124.14834158 792.65186381 1113.02461067 815.3484096 1112.43359375 840.37109375 C1112.41281265 841.11585464 1112.39203156 841.86061554 1112.37062073 842.62794495 C1112.3058179 844.98104625 1112.24656635 847.33424843 1112.1875 849.6875 C1112.1442487 851.29362976 1112.10063243 852.89974973 1112.05664062 854.50585938 C1111.95020878 858.42047249 1111.84875149 862.33518591 1111.75 866.25 C1152.18037188 868.7712926 1181.72125103 856.20568924 1212.01171875 829.63671875 C1213.60655427 828.246641 1215.22456778 826.88089172 1216.89453125 825.58203125 C1226.28250987 818.2802701 1228.82862222 808.55957325 1230.75 797.25 C1231.28824196 792.76561596 1231.68247103 788.27878711 1232.02871704 783.77578735 C1236.82726195 722.55491297 1262.48455368 669.40097984 1299.75 621.25 C1300.69667314 620.01306565 1301.64328817 618.77608681 1302.58984375 617.5390625 C1307.63421446 610.99114047 1312.86957866 604.75075216 1318.4921875 598.6875 C1320.41218871 596.61469593 1322.27996818 594.51416732 1324.125 592.375 C1332.52726691 582.75864407 1341.31878953 573.56450829 1350.3125 564.5 C1351.17439941 563.62512939 1352.03629883 562.75025879 1352.92431641 561.84887695 C1358.10850362 556.65733002 1363.46835742 551.86765177 1369.20410156 547.29174805 C1371.83065273 545.18531849 1374.38485586 543.00759021 1376.9375 540.8125 C1396.62604907 524.76997853 1417.21068058 516.3512028 1442.75 518.25 C1466.43976352 521.98551161 1487.77089492 538.76789651 1501.88989258 557.5222168 C1506.39282833 563.73482787 1510.03452494 570.04035441 1512.75 577.25 C1513.183125 578.384375 1513.61625 579.51875 1514.0625 580.6875 C1521.12078289 617.26223862 1493.61010661 658.98279325 1474.33837891 687.62866211 C1464.9152142 701.42170015 1454.8274312 714.66077431 1444.17382812 727.52197266 C1442.88936123 729.0808644 1441.62321063 730.65480439 1440.359375 732.23046875 C1435.33923515 738.4875855 1430.01147903 744.38396868 1424.5390625 750.2421875 C1422.30491626 752.63773026 1420.1344446 755.0771878 1418 757.5625 C1415.06138219 760.9647347 1411.91301294 764.10481102 1408.7109375 767.2578125 C1406.84521194 769.15327074 1405.10340745 771.10446735 1403.375 773.125 C1397.35164352 780.10880057 1390.75007645 786.48333503 1383.74609375 792.47265625 C1381.48867374 794.48268777 1379.37264287 796.59832953 1377.25 798.75 C1373.24263726 802.79818477 1369.08473165 806.55825355 1364.75 810.25 C1363.6975354 811.15450448 1362.6454864 812.05949265 1361.59375 812.96484375 C1358.58419712 815.55354238 1355.56814785 818.13453278 1352.54931641 820.71240234 C1351.3891774 821.70379386 1350.22992905 822.69622904 1349.07177734 823.68994141 C1344.11732441 827.94066223 1339.1657531 832.1782281 1334 836.171875 C1333.37416016 836.6558374 1332.74832031 837.1397998 1332.10351562 837.63842773 C1330.90930354 838.55595132 1329.71040486 839.46742295 1328.50585938 840.37133789 C1321.33864815 845.8107892 1321.33864815 845.8107892 1318.24609375 853.9765625 C1318.5935682 859.07366156 1320.1635792 863.81889357 1321.8125 868.625 C1322.12977051 869.5538501 1322.44704102 870.4827002 1322.77392578 871.43969727 C1326.57382419 882.11528925 1331.34431662 890.05623831 1341.75 895.25 C1361.49661798 902.49042659 1383.99174127 892.51694838 1401.88671875 884.26464844 C1405.87494575 882.36889063 1409.80173099 880.36522419 1413.71191406 878.31396484 C1415.82822909 877.20916119 1417.95595923 876.12898248 1420.0859375 875.05078125 C1439.82517819 864.97397219 1458.51593026 853.22201876 1476.9375 840.9375 C1477.62442932 840.4796814 1478.31135864 840.02186279 1479.019104 839.5501709 C1488.3911056 833.29130668 1497.61802035 826.85362523 1506.75 820.25 C1507.61359131 819.62746338 1508.47718262 819.00492676 1509.36694336 818.36352539 C1519.87008844 810.76594778 1530.07709532 802.88740881 1540.06933594 794.63085938 C1542.3368871 792.76780455 1544.63581347 790.94562664 1546.9375 789.125 C1555.89995092 781.9670694 1564.58759212 774.50945401 1573.01953125 766.734375 C1575.19214972 764.75757193 1577.3855303 762.81793649 1579.6015625 760.890625 C1593.71235909 748.57659103 1607.92811745 735.58611472 1620.0234375 721.2578125 C1621.86173269 719.1200665 1623.76854051 717.05280559 1625.68676758 714.98681641 C1630.49956599 709.80229447 1635.05650275 704.48832664 1639.49609375 698.9765625 C1642.66956606 695.137596 1646.02743483 691.48211476 1649.40234375 687.8203125 C1651.46402496 685.56309746 1653.45819334 683.26661701 1655.4375 680.9375 C1663.55263074 671.69844271 1663.55263074 671.69844271 1668.8125 670.625 C1676.86742309 672.33881342 1682.57038335 679.35587081 1686.88916016 686.00341797 C1698.35994441 704.7549438 1708.49259079 726.79209943 1705.75 749.25 C1701.8492994 762.3705384 1690.6932613 773.52554709 1681.48046875 783.33203125 C1678.79413299 786.20283642 1676.17767433 789.12693678 1673.5625 792.0625 C1670.2055508 795.76199503 1666.76539847 799.09941222 1662.9453125 802.30859375 C1660.08760379 804.83578455 1657.4285046 807.53536114 1654.75 810.25 C1650.2435717 814.80018004 1645.63317945 819.10343576 1640.75 823.25 C1639.62650545 824.2239945 1638.50422729 825.19939292 1637.3828125 826.17578125 C1625.35882627 836.64429349 1613.28129671 846.97155467 1600.68359375 856.74609375 C1598.62770025 858.34512203 1596.57911162 859.95320039 1594.53125 861.5625 C1559.9214622 888.70945668 1523.62376746 915.32961924 1483.75 934.25 C1482.75274902 934.73267334 1482.75274902 934.73267334 1481.73535156 935.22509766 C1460.83511201 945.28502627 1438.57150772 952.21530773 1415.75 956.25 C1414.69087402 956.44480957 1414.69087402 956.44480957 1413.61035156 956.64355469 C1378.86646455 962.76877329 1341.34605358 957.78026362 1309.75 942.25 C1308.07550781 941.43402344 1308.07550781 941.43402344 1306.3671875 940.6015625 C1290.71414956 932.56759363 1277.88207099 921.60641677 1265.66366577 909.07620239 C1264.17657873 907.55140082 1262.68524706 906.03084567 1261.19335938 904.51074219 C1259.20097466 902.48043341 1257.22790257 900.43349745 1255.26367188 898.37597656 C1254.35037109 897.44108398 1253.43707031 896.50619141 1252.49609375 895.54296875 C1251.67810303 894.6924292 1250.8601123 893.84188965 1250.01733398 892.96557617 C1247.94731128 891.01944822 1247.94731128 891.01944822 1245.67504883 891.3449707 C1243.72733021 892.26065782 1241.98677612 893.23214583 1240.203125 894.4375 C1239.1968103 895.10749023 1239.1968103 895.10749023 1238.17016602 895.79101562 C1237.45401123 896.27248047 1236.73785645 896.75394531 1236 897.25 C1205.89904735 916.98245573 1162.3743319 940.03509814 1125.2421875 933.08984375 C1092.1623215 925.13439499 1064.381857 904.06839334 1046.45996094 875.16210938 C1035.5248894 856.71766207 1033.80771845 835.74485558 1033.23242188 814.76757812 C1033.00536642 808.41430936 1032.19847216 802.44092746 1030.75 796.25 C1030.14704102 796.15420654 1029.54408203 796.05841309 1028.92285156 795.9597168 C1022.34071542 794.79521431 1016.589839 792.78041581 1010.5 790.0625 C1009.59483643 789.66683838 1008.68967285 789.27117676 1007.75708008 788.86352539 C1000.29460648 785.57003146 992.97870442 782.02836483 985.75 778.25 C985.64695557 778.83990723 985.54391113 779.42981445 985.43774414 780.03759766 C982.04789218 798.26984081 974.81747083 815.63726484 966.75 832.25 C966.23663086 833.31234863 965.72326172 834.37469727 965.19433594 835.46923828 C946.35382765 874.26791213 925.06624039 912.87697235 895.875 944.90625 C893.92505276 947.05692711 892.01973871 949.23824971 890.125 951.4375 C872.06051074 972.05906308 848.2227886 988.14771898 820.75 992.25 C796.19409173 993.60429928 775.88039262 991.95454829 756.75 975.25 C755.91597656 974.54875 755.08195312 973.8475 754.22265625 973.125 C747.95604093 967.71775103 742.80060344 961.79079916 737.75 955.25 C737.02039062 954.33605469 736.29078125 953.42210937 735.5390625 952.48046875 C720.71469398 933.46886632 708.36036288 910.53560559 707.05859375 886.078125 C706.95675781 885.47484375 706.85492187 884.8715625 706.75 884.25 C706.09 883.92 705.43 883.59 704.75 883.25 C702.2315287 884.21771809 699.82093512 885.24736336 697.375 886.375 C695.9129824 887.02914219 694.45074099 887.6827844 692.98828125 888.3359375 C691.57521587 888.97328263 690.16243446 889.6112579 688.75 890.25 C667.05396831 900.04820786 645.77525199 901.08593512 623.25 893.0625 C611.46724085 888.26052395 601.19190514 881.78804088 591.75 873.25 C590.82316406 872.41726563 589.89632813 871.58453125 588.94140625 870.7265625 C572.66764325 855.33307239 563.16732016 834.51825876 562.51171875 812.06640625 C562.26486523 796.02092727 563.27856962 780.92133683 566.75 765.25 C566.94835449 764.34217773 567.14670898 763.43435547 567.35107422 762.49902344 C572.28791824 740.57582271 580.32050093 719.41068398 588.14208984 698.3828125 C601.89563864 666.26255105 601.89563864 666.26255105 600.73828125 632.89453125 C598.45376033 628.93805811 596.16467109 625.86512357 591.75 624.25 C588.50919333 624.03864304 586.68266142 624.50387086 584.12890625 626.546875 C570.05738253 641.23585588 561.74143269 664.12327688 552.8125 682.125 C543.5500289 700.77726996 533.86233423 719.16952223 523.48339844 737.22460938 C521.63535036 740.450104 519.80478861 743.68510698 517.9765625 746.921875 C500.32252206 778.11520309 482.09596734 809.42349898 460.75 838.25 C460.08073486 839.15468018 460.08073486 839.15468018 459.39794922 840.07763672 C440.83204999 864.93820831 416.49713378 889.15881764 384.44140625 893.96484375 C367.20029767 895.79155046 352.25123961 891.54743964 338.66015625 880.80859375 C327.77806869 871.60461706 320.91612012 860.17678264 314.8125 847.484375 C312.57712291 842.84268021 310.17296818 838.29593162 307.75 833.75 C307.35167969 833.00137695 306.95335937 832.25275391 306.54296875 831.48144531 C305.61357487 829.73677923 304.68203746 827.99325526 303.75 826.25 C302.85861328 827.75626953 302.85861328 827.75626953 301.94921875 829.29296875 C296.27481371 838.71672041 290.07784541 847.06138759 282.75 855.25 C281.54068732 856.64498494 280.33221497 858.04069931 279.125 859.4375 C278.00114343 860.70934464 276.87596581 861.9800223 275.75 863.25 C275.12714111 863.95624512 274.50428223 864.66249023 273.86254883 865.39013672 C267.80332466 872.19925438 261.50056502 878.73967496 255.0625 885.1875 C254.53664307 885.71469635 254.01078613 886.2418927 253.46899414 886.7850647 C245.67528707 894.57448138 237.79044007 901.917823 228.75 908.25 C227.75033203 909.02923828 227.75033203 909.02923828 226.73046875 909.82421875 C213.89392611 919.13700459 194.40396733 920.54058331 179.22265625 918.859375 C164.75925577 916.27484983 152.44765438 909.16030702 141.75 899.25 C140.99589844 898.57582031 140.24179687 897.90164063 139.46484375 897.20703125 C127.51660158 885.97526216 119.3447981 871.60585959 111.12939453 857.58691406 C109.12904627 854.19800547 107.07121821 850.84592318 105 847.5 C104.36578125 846.47390625 103.7315625 845.4478125 103.078125 844.390625 C102.63984375 843.68421875 102.2015625 842.9778125 101.75 842.25 C101.09257813 843.30832031 100.43515625 844.36664062 99.7578125 845.45703125 C91.39584683 858.84187902 82.67230503 871.96991371 73.87719727 885.07202148 C72.46820761 887.17701613 71.06496297 889.28586852 69.66772461 891.39868164 C65.530186 897.65298481 61.27986605 903.78941396 56.8125 909.8125 C56.20623779 910.63186035 55.59997559 911.4512207 54.9753418 912.29541016 C50.40656673 918.43696248 45.69842001 924.40823691 40.75 930.25 C39.85765282 931.31605475 38.96574952 932.38248115 38.07421875 933.44921875 C33.12236145 939.35683359 28.09241749 945.17803439 22.90234375 950.87890625 C21.50647894 952.41663754 20.12280903 953.9655623 18.75390625 955.52734375 C13.9185565 961.02081293 8.85088031 966.25447349 3.6875 971.4375 C3.0267749 972.10281738 2.3660498 972.76813477 1.68530273 973.45361328 C-2.79716577 977.9221973 -7.45598082 982.12015034 -12.25 986.25 C-13.40641455 987.27178001 -14.56141108 988.29516759 -15.71484375 989.3203125 C-24.89444483 997.42173725 -34.39937507 1004.9814906 -44.25 1012.25 C-45.28229736 1013.01376953 -45.28229736 1013.01376953 -46.33544922 1013.79296875 C-95.49452855 1049.93354396 -157.9763152 1077.72208923 -220.27197266 1069.43017578 C-223.96559373 1068.83727519 -227.60776255 1068.10157491 -231.25 1067.25 C-232.30453369 1067.00854248 -232.30453369 1067.00854248 -233.38037109 1066.76220703 C-255.77107316 1061.42229389 -274.71795927 1050.08651798 -291.25 1034.25 C-292.53777344 1033.074375 -292.53777344 1033.074375 -293.8515625 1031.875 C-306.62920718 1019.79699581 -315.60480336 1005.44846624 -323.38061523 989.77832031 C-324.07779663 988.37404785 -324.07779663 988.37404785 -324.7890625 986.94140625 C-325.19334473 986.10810791 -325.59762695 985.27480957 -326.01416016 984.41625977 C-327.21785748 982.30634147 -328.44995194 980.86364482 -330.25 979.25 C-333.63123985 988.96207191 -336.67354715 998.66687307 -339.25 1008.625 C-345.35912173 1031.87694263 -345.35912173 1031.87694263 -354.6875 1037.796875 C-355.533125 1038.19390625 -356.37875 1038.5909375 -357.25 1039 C-358.095625 1039.40734375 -358.94125 1039.8146875 -359.8125 1040.234375 C-374.23699908 1046.24458295 -395.18059903 1043.15572063 -409.29101562 1037.42041016 C-426.42870687 1030.06714496 -440.02505842 1018.4082201 -448.03515625 1001.30078125 C-475.68279698 931.87053235 -412.60269913 811.2777798 -374.91950989 692.35105896 C-374.23642866 690.20741035 -373.55345051 688.06372892 -372.8704834 685.92004395 C-361.62135269 650.61355971 -350.32602515 615.32237425 -338.93447781 580.06157112 C-333.37820797 562.86278799 -327.85210975 545.65470804 -322.35446167 528.43710327 C-318.33485301 515.85120328 -314.29284673 503.2727508 -310.22265625 490.703125 C-310.00559147 490.03271431 -309.78852669 489.36230362 -309.56488419 488.67157745 C-308.67660648 485.92813728 -307.78826753 483.18471695 -306.89990807 480.44130325 C-299.16084811 456.54120779 -291.49100558 432.62217572 -283.95214844 408.65795898 C-278.85891842 392.46844304 -273.70553687 376.29988388 -268.49200439 360.14871216 C-239.18193062 270.19742524 -239.18193062 270.19742524 -213.25 179.25 C-230.9936229 185.23312705 -248.43536117 191.80789828 -265.75 198.9375 C-266.67796387 199.31942505 -267.60592773 199.7013501 -268.56201172 200.09484863 C-276.92891544 203.54249025 -285.28589873 207.01388573 -293.63867188 210.49560547 C-327.38365345 224.55913207 -327.38365345 224.55913207 -341.25 229.3125 C-342.18682617 229.64137207 -343.12365234 229.97024414 -344.08886719 230.30908203 C-349.16845518 231.97269005 -352.93330421 232.69320039 -358.25 231.25 C-362.81341715 227.49785701 -364.85352205 224.23238976 -366 218.5 C-368.72455909 186.11966315 -348.94122254 147.73555637 -329.08105469 123.39453125 C-315.10052487 107.02053472 -298.85141173 93.98567191 -280.25 83.25 C-279.63592285 82.8876123 -279.0218457 82.52522461 -278.38916016 82.15185547 C-255.54689149 68.70553616 -231.02979967 58.51226512 -206.25 49.25 C-205.58631409 49.00076782 -204.92262817 48.75153564 -204.23883057 48.49475098 C-140.24535622 24.47142098 -69.14409356 0.05522841 0 0 Z M10.75 98.25 C9.47334473 98.46430664 8.19668945 98.67861328 6.88134766 98.89941406 C-49.59966868 108.55536982 -102.95801601 128.3757658 -155.25 151.25 C-155.25 155.60251484 -152.57972578 157.66041523 -149.8125 160.75 C-148.70090904 162.01873114 -147.59023981 163.28827041 -146.48046875 164.55859375 C-145.9292334 165.18620605 -145.37799805 165.81381836 -144.81005859 166.46044922 C-141.17526912 170.62993386 -137.70638627 174.93254908 -134.25 179.25 C-133.82944336 179.76949219 -133.40888672 180.28898437 -132.97558594 180.82421875 C-117.65766848 199.8053615 -115.2254196 216.21253316 -117.5546875 240.41601562 C-118.42460966 247.10465184 -119.76787834 253.6733041 -121.25 260.25 C-121.43771973 261.11222168 -121.62543945 261.97444336 -121.81884766 262.86279297 C-133.01314189 313.46024333 -151.00939281 362.9600476 -166.6934166 412.29129124 C-173.27899764 433.00637464 -179.82596704 453.73343164 -186.34534836 474.46944427 C-187.05096332 476.71331315 -187.75700153 478.95704841 -188.46316528 481.20074463 C-191.02029389 489.32685709 -193.56829749 497.4557268 -196.10455322 505.58837891 C-197.21993106 509.15387939 -198.34643757 512.71571963 -199.47412109 516.27734375 C-200.13297483 518.38265989 -200.79137177 520.48811906 -201.44921875 522.59375 C-201.7524556 523.54109009 -202.05569244 524.48843018 -202.36811829 525.46447754 C-202.76730721 526.75339905 -202.76730721 526.75339905 -203.17456055 528.06835938 C-203.40821823 528.8093689 -203.64187592 529.55037842 -203.88261414 530.31384277 C-204.45211912 532.45621109 -204.45211912 532.45621109 -203.25 535.25 C-195.61371826 533.55230574 -187.97890895 531.84813991 -180.34572792 530.13656521 C-176.79803003 529.3412655 -173.24993019 528.54788343 -169.70068359 527.75952148 C-108.9053246 514.24930767 -61.58442297 492.51904768 -12.25 454.25 C-11.58242676 453.73308594 -10.91485352 453.21617187 -10.22705078 452.68359375 C-1.39932534 445.83598427 7.27677828 438.8037101 15.92822266 431.73535156 C17.56669895 430.39945103 19.21074048 429.07038316 20.85546875 427.7421875 C26.09753638 423.49825686 31.18968168 419.13701605 36.16796875 414.5859375 C38.27740041 412.67755606 40.40775953 410.80314246 42.5546875 408.9375 C46.68070044 405.33501928 50.69823077 401.62780322 54.6875 397.875 C55.38480225 397.21943115 56.08210449 396.5638623 56.80053711 395.88842773 C63.71373971 389.36943778 70.49409324 382.82288417 76.6796875 375.6015625 C78.87709401 373.10564039 81.13949192 370.68182008 83.41577148 368.25805664 C88.69221754 362.63793691 93.77775782 356.9484753 98.59765625 350.92578125 C100.80841478 348.17737908 103.08795356 345.4976202 105.375 342.8125 C126.8313411 317.09154452 146.13309923 288.88189032 161.75 259.25 C162.10255859 258.58339355 162.45511719 257.91678711 162.81835938 257.22998047 C178.83511028 226.70650067 191.57982256 192.93736871 182.75 158.25 C178.6601555 145.63239462 171.84178769 135.76165711 162.75 126.25 C162.22019531 125.64542969 161.69039062 125.04085937 161.14453125 124.41796875 C146.21535064 108.0304106 119.61047313 96.38362487 97.75 94.25 C93.97175931 94.07723501 90.19585564 94.0392675 86.4140625 94.01171875 C85.31456772 94.0019249 84.21507294 93.99213104 83.08226013 93.98204041 C58.64245422 93.80946702 34.87756638 94.06691223 10.75 98.25 Z M1042.75 250.25 C1034.79474283 258.3219704 1027.0633621 266.57867648 1020.01171875 275.45703125 C1017.2199066 278.90460584 1014.29946726 282.22750694 1011.375 285.5625 C1005.80267107 291.95197541 1000.47888136 298.48705983 995.31640625 305.2109375 C994.19436562 306.67154899 993.0689782 308.12959187 991.94140625 309.5859375 C955.54312958 356.60342969 926.71467563 408.05292574 899.52929688 460.80908203 C897.74357732 464.26242058 895.94427792 467.70834162 894.140625 471.15234375 C887.23617169 484.35081857 880.55624048 497.61977885 874.23095703 511.10546875 C872.63523103 514.49369013 871.01940592 517.87191265 869.40234375 521.25 C854.12592282 553.2684686 839.64441325 585.81189047 827.75 619.25 C827.4934967 619.96921631 827.23699341 620.68843262 826.97271729 621.42944336 C825.00035537 626.96582589 823.05636707 632.51170021 821.125 638.0625 C820.72754074 639.19584274 820.72754074 639.19584274 820.322052 640.3520813 C819.56807083 642.50920426 818.82535018 644.66987738 818.0859375 646.83203125 C817.65845215 648.07186768 817.2309668 649.3117041 816.79052734 650.58911133 C815.67032297 654.53032778 815.15735317 658.18068234 814.75 662.25 C821.41685243 657.21282261 826.16124099 650.88363164 831.18164062 644.29638672 C832.79859415 642.18659462 834.43525999 640.09357356 836.078125 638.00390625 C848.53102226 622.14900142 860.36064769 605.84871087 872.13671875 589.48828125 C873.76489256 587.22933793 875.39737625 584.97357339 877.03125 582.71875 C883.78558134 573.39487976 890.48552609 564.03562204 897.09423828 554.60791016 C898.25147719 552.95992824 899.41153906 551.31392665 900.57373047 549.66943359 C938.05698981 496.62924112 969.95824867 439.65406257 999.75390625 382.01953125 C1001.53015353 378.58724229 1003.32121559 375.16503546 1005.15234375 371.76171875 C1023.46430218 337.6895003 1039.81728274 302.42962072 1053.5 266.25 C1053.94563293 265.07195801 1053.94563293 265.07195801 1054.40026855 263.87011719 C1060.2883692 249.91916014 1060.2883692 249.91916014 1062.75 235.25 C1055.97768606 235.25 1047.34267337 245.7372737 1042.75 250.25 Z M1406.49511719 610.60205078 C1404.54891388 612.43988967 1402.59159337 614.26541806 1400.6328125 616.08984375 C1399.21336019 617.41386797 1397.79408703 618.73808428 1396.375 620.0625 C1395.72080078 620.67270996 1395.06660156 621.28291992 1394.39257812 621.91162109 C1388.22159554 627.69416517 1382.25693107 633.56138652 1376.74609375 639.98046875 C1375.29013197 641.63587735 1373.79782112 643.25952087 1372.28515625 644.86328125 C1360.71454812 657.13111397 1350.90310952 670.47928843 1342.75 685.25 C1342.1636377 686.30960938 1341.57727539 687.36921875 1340.97314453 688.4609375 C1336.23976871 697.11774162 1332.0207249 705.93644446 1328.06738281 714.97412109 C1327.12678058 717.12093604 1326.17338975 719.26174018 1325.21875 721.40234375 C1322.02590049 728.62027091 1319.05487389 735.88113994 1316.4140625 743.3203125 C1316.17303802 743.99786591 1315.93201355 744.67541931 1315.6836853 745.37350464 C1314.10003568 749.94669765 1312.86983026 754.54172715 1311.75 759.25 C1316.81734329 757.64978633 1320.55507583 754.59542805 1324.6875 751.375 C1325.43314209 750.79854736 1326.17878418 750.22209473 1326.94702148 749.62817383 C1336.39687864 742.26510568 1345.61624617 734.65398001 1353.9609375 726.04296875 C1355.81917036 724.18067862 1357.75473825 722.46407621 1359.75 720.75 C1365.84151586 715.49293837 1371.35345483 709.79596937 1376.5859375 703.69140625 C1378.33023582 701.72356067 1380.10267403 699.80742472 1381.9140625 697.90234375 C1389.25214109 690.1827095 1396.16564702 682.32953906 1402.56982422 673.81542969 C1403.62845801 672.41121788 1404.70565126 671.02104348 1405.78515625 669.6328125 C1421.99737146 648.26065199 1434.8251252 623.04576924 1445.6875 598.5625 C1446.12968872 597.5732251 1446.12968872 597.5732251 1446.58081055 596.56396484 C1448.06078591 593.16244049 1449.32717035 589.94975946 1449.75 586.25 C1448.90922128 583.98142854 1448.90922128 583.98142854 1447.75 582.25 C1432.33883587 582.25 1417.04175463 600.61735037 1406.49511719 610.60205078 Z M-92.22265625 604.57421875 C-137.2058766 625.0513208 -188.8144261 632.04103644 -237.25 639.25 C-240.18791372 646.62215978 -242.35332326 654.18826029 -244.546875 661.80859375 C-244.9726769 663.27946988 -245.39871394 664.75027795 -245.82496643 666.22102356 C-246.97958951 670.20860062 -248.12989434 674.19741128 -249.2791481 678.1865387 C-250.00267181 680.69676972 -250.72738306 683.20665486 -251.45248413 685.71643066 C-262.20671652 722.94273661 -272.81165535 760.21190862 -283.33991814 797.50271511 C-284.63637064 802.09081375 -285.94190006 806.67622828 -287.25405216 811.25986099 C-288.10956914 814.2506027 -288.96111345 817.2424673 -289.8120327 820.23451996 C-290.21156549 821.63557417 -290.61293336 823.03610657 -291.01626015 824.4360733 C-291.56791943 826.35152784 -292.11262701 828.26898042 -292.65698242 830.18652344 C-292.96600998 831.26593201 -293.27503754 832.34534058 -293.59342957 833.4574585 C-294.40258319 836.42085586 -294.40258319 836.42085586 -294.25 840.25 C-290.10185939 839.68400595 -287.49941454 838.36070897 -284.0625 836 C-282.48855469 834.92105469 -282.48855469 834.92105469 -280.8828125 833.8203125 C-276.70301105 830.88208245 -272.57220336 827.87616392 -268.4375 824.875 C-221.31922076 790.72990147 -159.68499295 759.02599103 -99.5625 768.4375 C-65.77226468 774.27301337 -32.71046999 789.33551063 -7.75 813.04345703 C-3.78769992 816.80690103 0.28958404 820.10147109 4.75 823.25 C10.14783883 812.6103187 15.34781855 801.89400766 20.34204102 791.05883789 C21.43996419 788.68216577 22.54902603 786.31088987 23.65820312 783.93945312 C33.03889343 763.71131699 37.89592361 744.88914795 37.91796875 722.515625 C37.92129715 721.31999939 37.92462555 720.12437378 37.92805481 718.89251709 C37.9330932 716.37463767 37.9354641 713.85675164 37.93530273 711.33886719 C37.93748553 707.52527644 37.95566469 703.71197708 37.97460938 699.8984375 C38.0310931 676.75716945 37.07035158 659.15905837 20.75 641.25 C19.94949219 640.36828125 19.14898438 639.4865625 18.32421875 638.578125 C-4.91106911 614.20688974 -39.49728952 600.009722 -73.0625 598.9375 C-80.17631333 599.10366206 -85.865595 601.5799377 -92.22265625 604.57421875 Z M-191.25 890.25 C-192.06082031 890.97574219 -192.87164062 891.70148437 -193.70703125 892.44921875 C-207.4976222 905.49437235 -220.97324885 924.22079375 -224.25 943.25 C-224.40082031 944.07628906 -224.55164063 944.90257812 -224.70703125 945.75390625 C-226.28836814 956.85801915 -223.34530695 966.92490889 -217.25 976.25 C-210.72418159 984.16987869 -204.0531436 990.44284737 -193.5625 991.6875 C-149.74531746 988.85781894 -102.47533149 951.95978162 -71.94921875 922.7734375 C-69.25 920.25 -69.25 920.25 -66.6015625 918.13671875 C-56.0980501 909.70948206 -47.63760106 897.19833776 -44.5 884.125 C-43.63576071 874.18624813 -44.73906432 865.24914955 -51.25 857.25 C-61.06076052 847.19397047 -76.77479077 844.44855635 -90.3125 844.0625 C-128.82047785 844.79282372 -163.38245835 865.11825166 -191.25 890.25 Z " fill="#FF5499" transform="translate(578.25,130.75)"/>
<path d="M0 0 C15.38885741 11.40807443 35.68312277 29.40991872 39 49 C39.24195448 53.06006955 39.23103047 57.12090791 39.25 61.1875 C39.270625 62.27353516 39.29125 63.35957031 39.3125 64.47851562 C39.44743658 92.56219147 15.96046484 114.00535549 -2.43847656 132.59985352 C-2.94576294 133.1113797 -3.45304932 133.62290588 -3.97570801 134.14993286 C-4.9747725 135.15769826 -5.97246426 136.1668268 -6.96862793 137.17745972 C-13.62855173 143.922511 -20.58563707 150.08265586 -28 156 C-30.3534504 157.97702486 -32.67782847 159.9863982 -35 162 C-39.13506831 165.57003846 -43.30326007 169.07772861 -47.5625 172.5 C-56.29905129 179.60814084 -65.03333382 187.10445231 -72 196 C-76.63617677 201.87872559 -76.63617677 201.87872559 -80 203 C-93.04902954 204.18627541 -105.08596314 197.35729145 -115.10546875 189.59375 C-128.85377564 178.05843717 -136.74273658 162.81226677 -139 145 C-141.21375124 112.11996836 -127.24465358 84.99145901 -107 60 C-106.25234375 59.04738281 -105.5046875 58.09476562 -104.734375 57.11328125 C-85.18988644 32.99790424 -35.45916781 -21.94852172 0 0 Z " fill="#FF5499" transform="translate(1925,436)"/>
</svg>
